<svg width="568" height="166" viewBox="0 0 568 166" fill="none" xmlns="http://www.w3.org/2000/svg">
<path d="M198.969 101.625C186.062 101.625 177.188 91.0938 177.188 78.5938C177.188 66.0938 186.062 55.5625 198.969 55.5625C205.375 55.5625 212.688 58.7188 215.75 64.6875H212.844C210.281 60.25 203.875 57.875 199.031 57.875C187.5 57.875 179.875 67.625 179.875 78.5938C179.875 89.5625 187.5 99.3125 199.031 99.3125C203.875 99.3125 210.281 96.9375 212.844 92.5H215.75C212.688 98.4688 205.375 101.625 198.969 101.625ZM222.625 85.5312C222.625 76.5 229.031 69.4375 238.219 69.4375C247.406 69.4375 253.812 76.5 253.812 85.5312C253.812 94.5625 247.406 101.625 238.219 101.625C229.031 101.625 222.625 94.5625 222.625 85.5312ZM238.219 71.375C230.125 71.375 224.938 77.7188 224.938 85.5312C224.938 93.3438 230.125 99.6875 238.219 99.6875C246.312 99.6875 251.5 93.3438 251.5 85.5312C251.5 77.7188 246.312 71.375 238.219 71.375ZM261.938 70.0625H264.25V76.75C265.844 72.125 269.25 69.4375 274.344 69.4375C278.875 69.4375 282.5 71.5625 284.562 75.6875C284.938 76.4375 285.312 77.3438 285.469 78.2188C285.625 77.3438 286 76.4375 286.344 75.7188C288.312 71.625 291.75 69.4375 296.469 69.4375C304.969 69.4375 308.25 76.6562 308.25 84.3438V101H305.938V85.1562C305.938 78.6875 303.875 71.4375 296.094 71.4375C288.312 71.4375 286.25 78.6875 286.25 85.1562V101H283.938V85.1562C283.938 78.6875 281.875 71.4375 274.094 71.4375C266.312 71.4375 264.25 78.6875 264.25 85.1562V101H261.938V70.0625ZM318.375 101V70.0625H320.688V101H318.375ZM317.625 60.5938C317.625 59.5312 318.469 58.6875 319.531 58.6875C320.594 58.6875 321.438 59.5312 321.438 60.5938C321.438 61.6562 320.594 62.5 319.531 62.5C318.469 62.5 317.625 61.6562 317.625 60.5938ZM330.812 70.0625H333.125V77.3125C334.875 72.0938 339.062 69.4375 344.594 69.4375C353.656 69.4375 357.75 76.625 357.75 84.9062V101H355.438V85.5312C355.438 78.2812 352.594 71.375 344.281 71.375C335.969 71.375 333.125 78.2812 333.125 85.5312V101H330.812V70.0625ZM365.875 85.5312C365.875 76.5 372.281 69.4375 381.312 69.4375C387 69.4375 392.594 72.875 394.75 78.1875V70.0625H397.062V99.4375C397.062 109.875 393.344 117.625 381.781 117.625C376.406 117.625 370.406 114.781 368.5 109.438H370.938C372.812 113.375 377.562 115.688 381.781 115.688C392.438 115.688 394.75 107.906 394.75 98.75V92.875C392.594 98.1875 387 101.625 381.312 101.625C372.281 101.625 365.875 94.5625 365.875 85.5312ZM368.188 85.5312C368.188 93.3438 373.375 99.6875 381.469 99.6875C389.562 99.6875 394.75 93.3438 394.75 85.5312C394.75 77.7188 389.562 71.375 381.469 71.375C373.375 71.375 368.188 77.7188 368.188 85.5312Z" fill="#505862"/>
<path d="M422.375 93.75H427.375C428.562 96.9688 432.594 97.5 435.375 97.5C438.781 97.5 444 96.6875 444 92.1562C444 87.8125 439.156 87.5 435.562 87C430 86.2188 422.969 84.7188 422.969 77.875C422.969 71.0312 430.031 68.9375 435.625 68.9375C440.531 68.9375 447.156 71.2188 448.062 76.8125H443.062C442.062 73.625 438.438 73.0625 435.656 73.0625C432.5 73.0625 427.906 73.7812 427.906 77.6562C427.906 81.625 432.656 82.2812 435.562 82.6562C441.594 83.4375 448.938 84.9062 448.938 92.3125C448.938 99.75 441.5 101.625 435.594 101.625C427.969 101.625 423.312 98.75 422.375 93.75ZM470.906 101.625C461.562 101.625 454.562 94.625 454.562 85.2812C454.562 75.9375 461.562 68.9375 470.906 68.9375C480.25 68.9375 487.25 75.9375 487.25 85.2812C487.25 94.625 480.25 101.625 470.906 101.625ZM470.906 73.0625C464.094 73.0625 459.375 78.6875 459.375 85.2812C459.375 91.875 464.094 97.5 470.906 97.5C477.719 97.5 482.438 91.875 482.438 85.2812C482.438 78.6875 477.719 73.0625 470.906 73.0625ZM509.844 101.625C500.5 101.625 493.5 94.625 493.5 85.2812C493.5 75.9375 500.5 68.9375 509.844 68.9375C519.188 68.9375 526.188 75.9375 526.188 85.2812C526.188 94.625 519.188 101.625 509.844 101.625ZM509.844 73.0625C503.031 73.0625 498.312 78.6875 498.312 85.2812C498.312 91.875 503.031 97.5 509.844 97.5C516.656 97.5 521.375 91.875 521.375 85.2812C521.375 78.6875 516.656 73.0625 509.844 73.0625ZM538.5 101H533.688V69.5625H538.5V75.5625C540.125 71.0938 544.031 68.9375 548.719 68.9375C558.688 68.9375 562.5 76.2188 562.5 85.2812V101H557.688V85.2812C557.688 78.9375 555.375 73.0625 548.094 73.0625C540.812 73.0625 538.5 78.9375 538.5 85.2812V101Z" fill="#EFA935"/>
<path d="M116.41 100.75C115.712 99.8456 114.957 98.945 114.184 98.0809L104.18 86.9399C101.243 84.981 98.9818 82.3391 96.9009 79.4381C95.6232 77.8513 94.3677 76.2419 93.1255 74.628L81.338 61.4848C80.21 60.2166 78.6678 59.4838 76.9973 59.3915C75.3313 59.313 73.7509 59.8963 72.5314 61.0351C71.3118 62.174 70.6079 63.7558 70.5506 65.4615C70.4934 67.1672 71.0768 68.7993 72.2181 70.0631L84.3066 83.5363C85.7921 84.9471 87.2688 86.3762 88.7234 87.8279C91.4012 90.2097 93.8134 92.7712 95.4783 95.9782L106.627 108.397C107.756 109.665 109.298 110.398 110.968 110.49C112.634 110.569 114.215 109.985 115.434 108.846C116.654 107.708 117.358 106.126 117.415 104.42C117.455 103.288 117.196 102.146 116.671 101.139C116.594 100.996 116.509 100.871 116.423 100.746L116.41 100.75ZM74.7579 61.6032C72.6968 63.2806 72.1865 66.2093 73.3811 68.5289C73.1569 68.3423 72.9369 68.1236 72.7523 67.8779C71.3663 66.0969 71.6302 63.5409 73.342 62.1475C73.8772 61.7101 74.485 61.448 75.1119 61.3329C74.9924 61.4184 74.8596 61.5083 74.7579 61.6032ZM114.036 107.744C112.535 109.375 110.011 109.426 108.4 107.858C107.902 107.378 107.545 106.79 107.335 106.154C107.429 106.261 107.528 106.382 107.64 106.498C109.575 108.374 112.479 108.534 114.533 107.013C114.393 107.258 114.225 107.513 114 107.725L114.036 107.744Z" fill="#F7A53A"/>
<path d="M102.552 105.801L94.6025 96.9411C91.5585 94.9716 89.2609 92.2649 87.1304 89.3037C85.7223 87.5453 84.3362 85.7643 82.968 83.9927L74.3893 74.4359C73.2613 73.1677 71.719 72.435 70.0485 72.3427C68.3826 72.2642 66.8022 72.8475 65.5826 73.9863C64.363 75.1251 63.6591 76.707 63.6019 78.4127C63.5447 80.1183 64.128 81.7504 65.2694 83.0142L73.8436 92.5572C75.5669 94.1961 77.2769 95.8395 78.9648 97.5055C81.7279 99.9665 84.2074 102.598 85.878 105.956L93.4322 114.379C94.5603 115.647 96.1025 116.38 97.773 116.472C99.439 116.551 101.019 115.968 102.239 114.829C103.459 113.69 104.162 112.108 104.22 110.402C104.277 108.697 103.68 107.069 102.552 105.801ZM67.6021 74.8221C65.7343 76.727 65.5182 79.6966 66.961 81.8729C66.7147 81.7089 66.4905 81.5222 66.2706 81.3035C64.7166 79.6853 64.7043 77.0979 66.2676 75.5235C66.7533 75.0257 67.325 74.6989 67.947 74.5242C67.832 74.6235 67.717 74.7228 67.62 74.8315L67.6021 74.8221ZM100.988 113.724C99.487 115.354 96.9628 115.406 95.3514 113.837C94.8532 113.358 94.4966 112.77 94.2865 112.134C94.3809 112.241 94.4798 112.362 94.5921 112.478C96.5266 114.354 99.4311 114.514 101.485 112.993C101.331 113.243 101.164 113.497 100.952 113.705L100.988 113.724Z" fill="#F7A53A"/>
<path d="M86.2258 108.327L84.5406 106.445C81.6659 104.496 79.4269 101.877 77.3775 99.0275C76.1989 97.5613 75.0469 96.0863 73.8903 94.5975L70.5739 90.9086C69.4458 89.6404 67.9036 88.9077 66.2331 88.8153C64.5671 88.7368 62.9868 89.3201 61.7672 90.459C60.5476 91.5978 59.8437 93.1797 59.7865 94.8853C59.7292 96.591 60.3126 98.2231 61.454 99.4869L77.0926 116.909C78.2206 118.177 79.7628 118.91 81.4333 119.002C83.0993 119.081 84.6796 118.498 85.8992 117.359C87.1188 116.22 87.8227 114.638 87.88 112.932C87.9372 111.227 87.3538 109.595 86.2125 108.331L86.2258 108.327ZM63.435 91.3035C61.5672 93.2085 61.3511 96.178 62.7938 98.3543C62.5476 98.1903 62.3234 98.0037 62.1035 97.785C60.5495 96.1667 60.5372 93.5793 62.1005 92.005C62.5862 91.5072 63.1579 91.1804 63.7798 91.0056C63.6649 91.1049 63.5499 91.2043 63.4529 91.313L63.435 91.3035ZM84.3323 116.328C82.8318 117.958 80.3076 118.01 78.6961 116.441C78.198 115.961 77.8414 115.374 77.6313 114.738C77.7257 114.845 77.8246 114.965 77.9502 115.077C79.8848 116.953 82.7893 117.113 84.8428 115.592C84.7023 115.837 84.5173 116.082 84.3099 116.304L84.3323 116.328Z" fill="#F7A53A"/>
<path d="M122.701 86.8326L113.933 77.0622C110.983 75.1078 108.717 72.452 106.636 69.5511C105.354 67.9505 104.076 66.3177 102.829 64.6901L94.5379 55.4677C93.4098 54.1995 91.8676 53.4667 90.1971 53.3744C88.5312 53.2959 86.9508 53.8792 85.7179 55.0224C84.4983 56.1613 83.7944 57.7432 83.7372 59.4488C83.6799 61.1545 84.2633 62.7866 85.4047 64.0504L93.615 73.2074C95.2485 74.7534 96.8778 76.3314 98.4804 77.9182C101.221 80.3559 103.691 82.9596 105.348 86.2765L113.554 95.4198C114.682 96.688 116.224 97.4207 117.895 97.513C119.561 97.5915 121.141 97.0082 122.361 95.8694C123.58 94.7306 124.284 93.1487 124.342 91.443C124.399 89.7373 123.815 88.1052 122.674 86.8414L122.701 86.8326ZM93.7745 57.9432C93.6756 57.8226 93.5812 57.7157 93.4689 57.5995C91.6006 55.6557 88.7041 55.3856 86.592 56.8192C86.7458 56.5691 86.9353 56.3378 87.1428 56.1159C88.7061 54.5415 91.2178 54.5861 92.7763 56.2181C93.2524 56.7202 93.5957 57.3122 93.7791 57.957L93.7745 57.9432ZM122.35 93.5114C121.883 94.0186 121.32 94.3731 120.72 94.571C120.835 94.4717 120.933 94.363 121.043 94.2499C122.848 92.289 122.957 89.3088 121.457 87.1821C121.699 87.3323 121.936 87.5146 122.169 87.7289C123.776 89.2836 123.864 91.8767 122.364 93.507L122.35 93.5114Z" fill="#F7A53A"/>
<path d="M159.654 26.8017L156.032 22.8149C154.914 21.6202 151.743 21.594 151.556 25.4125C151.552 25.4446 151.539 25.4949 151.504 25.5219L114.439 56.9461L111.051 53.1736C109.982 51.9934 108.585 51.1205 107.025 50.915C105.175 50.6826 103.386 51.2583 102.042 52.5147C100.699 53.7711 99.9879 55.5547 100.07 57.4596C100.128 59.0659 100.862 60.5717 101.931 61.7519L103.383 63.3733C105.016 64.9193 106.623 66.474 108.208 68.0514C110.931 70.4797 113.401 73.0833 115.067 76.3821C115.067 76.3821 115.076 76.4097 115.08 76.4235L117.161 78.7419C118.23 79.9221 119.631 80.8088 121.192 81.0142C123.046 81.2605 124.836 80.6848 126.174 79.4146C127.513 78.1444 128.238 76.3564 128.155 74.4515C128.084 72.8496 127.35 71.3438 126.281 70.1636L123.081 66.6047L156.827 31.2621C156.827 31.2621 156.89 31.2262 156.934 31.2269C161.084 31.1752 160.503 27.7632 159.627 26.8105L159.654 26.8017ZM109.369 53.8059C107.095 52.3794 104.236 52.8483 102.537 54.774C102.624 54.5 102.751 54.2128 102.9 53.9488C104.038 52.0244 106.473 51.4348 108.371 52.6175C108.952 52.9927 109.424 53.481 109.745 54.0497C109.624 53.9517 109.494 53.8719 109.364 53.7921L109.369 53.8059ZM125.738 77.78C125.252 78.2777 124.681 78.6046 124.059 78.7793C124.174 78.68 124.289 78.5807 124.39 78.4858C126.263 76.5947 126.483 73.639 125.063 71.44C125.309 71.604 125.533 71.7907 125.74 72.0138C127.294 73.632 127.293 76.2238 125.725 77.7844L125.738 77.78Z" fill="#F7A53A"/>
<path fill-rule="evenodd" clip-rule="evenodd" d="M68.0033 126.993C68.3951 126.993 68.7709 127.149 69.048 127.426C69.3251 127.703 69.4808 128.079 69.4808 128.47C69.4808 128.862 69.3251 129.238 69.048 129.515C68.7709 129.792 68.3951 129.948 68.0033 129.948C67.6114 129.948 67.2356 129.792 66.9585 129.515C66.6814 129.238 66.5257 128.862 66.5257 128.47C66.5257 128.079 66.6814 127.703 66.9585 127.426C67.2356 127.149 67.6114 126.993 68.0033 126.993ZM77.9238 128.47C77.9238 125.839 76.8786 123.316 75.0182 121.455C73.1577 119.595 70.6344 118.55 68.0033 118.55C65.3722 118.55 62.8488 119.595 60.9883 121.455C59.1279 123.316 58.0827 125.839 58.0827 128.47C58.0827 131.101 59.1279 133.625 60.9883 135.485C62.8488 137.346 65.3722 138.391 68.0033 138.391C70.6344 138.391 73.1577 137.346 75.0182 135.485C76.8786 133.625 77.9238 131.101 77.9238 128.47Z" fill="#F7A53A"/>
<path fill-rule="evenodd" clip-rule="evenodd" d="M87.2227 20.7029C86.0904 15.2121 83.2015 10.3181 79.1915 7.09735C75.1814 3.87662 70.3786 2.59304 65.8397 3.52898L17.9208 13.4101C13.382 14.3461 9.47875 17.4249 7.06988 21.9692C4.66101 26.5136 3.94379 32.1513 5.07602 37.642L27.2751 145.297C28.4073 150.788 31.2963 155.682 35.3063 158.903C39.3164 162.123 44.1192 163.407 48.6581 162.471L99.9997 151.884C103.631 151.135 106.753 148.672 108.681 145.037C110.608 141.401 111.181 136.891 110.276 132.499L107.714 120.077C107.488 118.979 106.91 118 106.108 117.356C105.306 116.712 104.345 116.455 103.438 116.642C102.53 116.829 101.749 117.445 101.267 118.354C100.786 119.263 100.642 120.39 100.869 121.488L103.43 133.91C103.883 136.106 103.596 138.361 102.632 140.179C101.669 141.997 100.108 143.228 98.2921 143.603L46.9504 154.19C44.2271 154.751 41.3455 153.981 38.9394 152.049C36.5334 150.116 34.8 147.18 34.1207 143.885L11.9216 36.2304C11.2422 32.936 11.6726 29.5534 13.1179 26.8268C14.5632 24.1001 16.9051 22.2529 19.6285 21.6913L67.5474 11.8101C70.2707 11.2486 73.1523 12.0187 75.5584 13.9512C77.9644 15.8836 79.6978 18.82 80.3771 22.1145L85.9269 49.0282C86.1533 50.1264 86.7311 51.1052 87.5331 51.7494C88.3352 52.3935 89.2957 52.6502 90.2035 52.463C91.1113 52.2758 91.8919 51.6601 92.3737 50.7512C92.8555 49.8423 92.9989 48.7148 92.7724 47.6166L87.2227 20.7029Z" fill="#505862"/>
</svg>
