<?xml version="1.0" encoding="utf-8"?>
<!-- Generator: Adobe Illustrator 27.1.0, SVG Export Plug-In . SVG Version: 6.00 Build 0)  -->
<svg version="1.1" id="Capa_1" xmlns="http://www.w3.org/2000/svg" xmlns:xlink="http://www.w3.org/1999/xlink" x="0px" y="0px"
	 viewBox="0 0 556.3 155.9" style="enable-background:new 0 0 556.3 155.9;" xml:space="preserve">
<style type="text/css">
	.st0{fill:#838891;}
	.st1{fill:#F7A53C;}
	.st2{fill:#F7A53B;}
</style>
<path class="st0" d="M9,150.1V80.3h4v32.3h44.6V80.3h4v69.8h-4v-33.9H13v33.9L9,150.1L9,150.1z"/>
<path class="st0" d="M97.1,101c14.3,0,24.3,11,24.3,25.1s-10,25.1-24.3,25.1c-14.3,0-24.3-11-24.3-25.1S82.8,101,97.1,101z
	 M76.4,126c0,12.2,8.1,22,20.7,22c12.6,0,20.7-9.9,20.7-22c0-12.2-8.1-22-20.7-22C84.5,104,76.4,113.9,76.4,126z"/>
<path class="st0" d="M135.1,101.9v10.4c2.5-7.2,7.8-11.4,15.7-11.4c7.1,0,12.7,3.3,15.9,9.7c0.6,1.2,1.2,2.6,1.4,3.9
	c0.2-1.4,0.8-2.8,1.4-3.9c3.1-6.4,8.4-9.8,15.8-9.8c13.2,0,18.4,11.2,18.4,23.2v25.9h-3.6v-24.7c0-10.1-3.2-21.4-15.3-21.4
	c-12.1,0-15.3,11.3-15.3,21.4v24.7h-3.6v-24.7c0-10.1-3.2-21.4-15.3-21.4c-12.1,0-15.3,11.3-15.3,21.4v24.7h-3.6v-48.2H135.1
	L135.1,101.9z"/>
<path class="st0" d="M238.2,101c14.2,0,24.4,11,24.4,24.5v1.8h-44.9c0.5,11.7,8.6,20.8,20.2,20.8c6.8,0,14.6-3.1,18.3-8.7h3.9
	c-3.9,7.4-13.5,11.7-21.5,11.7c-14.6,0-24.7-11-24.7-25.1S224,100.9,238.2,101L238.2,101z M217.7,124.3h41.2
	c-0.7-11.5-8.8-20.3-20.6-20.3C226.5,104,218.4,112.8,217.7,124.3z"/>
<path class="st1" d="M284.2,80.3l25.5,59.6l25.5-59.6h11v69.8h-7.9V91.5l-25.1,58.6h-7l-25.1-58.6v58.6h-7.9V80.3H284.2z"/>
<path class="st1" d="M358.9,125.6c0-14.5,10.9-25.5,25.6-25.5s25.6,11.9,25.6,27v1.9h-43.5c1.4,9,8.5,15.7,17.6,15.7
	c5.3,0,12-2.3,15-6.8h8.4c-4.3,9.9-13.1,13.2-23.4,13.2C369.8,151.1,358.9,140.2,358.9,125.6L358.9,125.6z M366.6,122.6h35.5
	c-1.3-9.1-8.4-16-17.7-16C375,106.6,367.9,113.5,366.6,122.6z"/>
<path class="st1" d="M445.2,100.2c8,0,14.4,3.5,18,11.2v-10.3h7.5v49h-7.5v-10.3c-3.6,7.8-10,11.2-18,11.2
	c-14.6,0-25.4-11.5-25.4-25.5S430.7,100.2,445.2,100.2L445.2,100.2z M427.3,125.6c0,10.3,7.4,19,18,19c10.6,0,18-8.8,18-19
	s-7.4-19-18-19C434.7,106.6,427.3,115.4,427.3,125.6z"/>
<path class="st1" d="M485.4,150.1V76.3h7.5v73.8H485.4z"/>
<path class="st1" d="M512.4,138.8c1.9,5,8.1,5.8,12.5,5.8c5.3,0,13.4-1.3,13.4-8.3s-7.6-7.3-13.1-8c-8.7-1.2-19.6-3.6-19.6-14.2
	s11-13.9,19.7-13.9c7.7,0,18,3.6,19.4,12.3h-7.8c-1.6-5-7.2-5.8-11.5-5.8c-4.9,0-12.1,1.1-12.1,7.2c0,6,7.4,7.2,11.9,7.8
	c9.4,1.2,20.9,3.5,20.9,15c0,11.5-11.6,14.5-20.8,14.5c-11.9,0-19.2-4.5-20.6-12.3H512.4z"/>
<path class="st2" d="M442,64.1c-0.4-1-0.8-2.1-1.3-3.1l-5.9-13c-2.1-2.6-3.5-5.7-4.5-8.9c-0.7-1.8-1.4-3.6-2.1-5.5l-7-15.4
	c-0.7-1.5-1.9-2.6-3.4-3.2c-1.5-0.6-3.2-0.5-4.7,0.2c-1.5,0.7-2.6,1.9-3.2,3.4c-0.6,1.5-0.5,3.2,0.1,4.7l7.2,15.8
	c1,1.7,1.9,3.4,2.8,5.2c1.8,2.9,3.2,6,3.8,9.4l6.6,14.5c0.7,1.5,1.9,2.6,3.4,3.2c1.5,0.6,3.2,0.5,4.7-0.2c1.5-0.7,2.6-1.9,3.2-3.4
	c0.4-1,0.5-2.1,0.3-3.2C442.1,64.4,442,64.3,442,64.1L442,64.1z M415,16.4c-2.5,0.9-3.8,3.4-3.4,5.8c-0.2-0.2-0.3-0.5-0.4-0.8
	c-0.7-2,0.3-4.2,2.3-5c0.6-0.2,1.3-0.3,1.9-0.2C415.3,16.3,415.1,16.3,415,16.4z M437.6,69.7c-1.9,1-4.3,0.3-5.3-1.6
	c-0.3-0.6-0.5-1.2-0.5-1.9c0.1,0.1,0.1,0.3,0.2,0.4c1.2,2.3,3.9,3.3,6.3,2.5C438,69.4,437.8,69.6,437.6,69.7L437.6,69.7z"/>
<path class="st2" d="M427.4,64.5l-4.7-10.4c-2.2-2.7-3.6-5.8-4.6-9.1c-0.8-2-1.5-4-2.3-6l-5.1-11.2c-0.7-1.5-1.9-2.6-3.4-3.2
	c-1.5-0.6-3.2-0.5-4.7,0.2c-1.5,0.7-2.6,1.9-3.2,3.4c-0.6,1.5-0.5,3.2,0.1,4.7l5.1,11.2c1.1,2,2.2,4,3.3,6c1.8,3,3.3,6.2,3.9,9.7
	l4.5,9.9c0.7,1.5,1.9,2.6,3.4,3.2c1.5,0.6,3.2,0.5,4.7-0.2c1.5-0.7,2.6-1.9,3.2-3.4S428.1,66,427.4,64.5z M404.2,26.2
	c-2.3,1.2-3.5,3.8-2.8,6.2c-0.2-0.2-0.3-0.5-0.5-0.7c-1-1.9-0.2-4.3,1.8-5.2c0.6-0.3,1.2-0.4,1.9-0.4
	C404.5,26.1,404.4,26.1,404.2,26.2L404.2,26.2z M423.5,71.2c-1.9,1-4.3,0.3-5.3-1.6c-0.3-0.6-0.5-1.2-0.5-1.9
	c0.1,0.1,0.1,0.3,0.2,0.4c1.2,2.3,3.9,3.3,6.3,2.5C423.9,70.9,423.7,71.1,423.5,71.2L423.5,71.2z"/>
<path class="st2" d="M411.3,62l-1-2.2c-2.1-2.6-3.4-5.6-4.4-8.8c-0.7-1.7-1.3-3.3-1.9-5l-2-4.3c-0.7-1.5-1.9-2.6-3.4-3.2
	c-1.5-0.6-3.2-0.5-4.7,0.2c-1.5,0.7-2.6,1.9-3.2,3.4c-0.6,1.5-0.5,3.2,0.1,4.7l9.3,20.4c0.7,1.5,1.9,2.6,3.4,3.2
	c1.5,0.6,3.2,0.5,4.7-0.2c1.5-0.7,2.6-1.9,3.2-3.4C412,65.1,412,63.4,411.3,62L411.3,62z M395.2,39.8c-2.3,1.2-3.5,3.8-2.8,6.2
	c-0.2-0.2-0.3-0.5-0.5-0.7c-1-1.9-0.2-4.3,1.8-5.2c0.6-0.3,1.2-0.4,1.9-0.4C395.5,39.7,395.3,39.7,395.2,39.8L395.2,39.8z M407,68.6
	c-1.9,1-4.3,0.3-5.3-1.6c-0.3-0.6-0.5-1.2-0.5-1.9c0.1,0.1,0.1,0.3,0.2,0.4c1.2,2.3,3.9,3.3,6.3,2.5C407.5,68.3,407.3,68.5,407,68.6
	L407,68.6z"/>
<path class="st2" d="M452.2,53.4L447,42c-2.2-2.6-3.5-5.7-4.5-9c-0.7-1.8-1.4-3.7-2.1-5.5l-4.9-10.8c-0.7-1.5-1.9-2.6-3.4-3.2
	c-1.5-0.6-3.2-0.5-4.7,0.2c-1.5,0.7-2.6,1.9-3.2,3.4c-0.6,1.5-0.5,3.2,0.1,4.7l4.9,10.7c1.1,1.9,2.1,3.8,3.1,5.7
	c1.8,3,3.3,6.1,3.9,9.6l4.9,10.7c0.7,1.5,1.9,2.6,3.4,3.2c1.5,0.6,3.2,0.5,4.7-0.2c1.5-0.7,2.6-1.9,3.2-3.4
	C452.9,56.6,452.8,54.9,452.2,53.4L452.2,53.4z M434,18.7c-0.1-0.1-0.1-0.3-0.2-0.4c-1.2-2.3-3.8-3.4-6.2-2.8
	c0.2-0.2,0.5-0.3,0.7-0.5c2-1,4.3-0.2,5.3,1.8C433.9,17.5,434,18.1,434,18.7L434,18.7z M449.8,59.4c-0.6,0.3-1.2,0.5-1.9,0.5
	c0.1-0.1,0.3-0.1,0.4-0.2c2.3-1.2,3.3-3.9,2.6-6.3c0.2,0.2,0.3,0.4,0.5,0.7C452.4,56,451.7,58.3,449.8,59.4L449.8,59.4z"/>
<path class="st2" d="M505.4,10.3l-2.2-4.7c-0.7-1.4-3.6-2.4-5,1c0,0,0,0.1-0.1,0.1L453.7,24l-2-4.4c-0.6-1.4-1.7-2.6-3.1-3.2
	c-1.7-0.8-3.5-0.8-5.2,0c-1.6,0.7-2.9,2.1-3.4,3.9c-0.4,1.5-0.2,3,0.4,4.4l0.9,1.9c1.1,1.9,2.1,3.8,3.1,5.7c1.8,3,3.3,6.1,3.9,9.6
	c0,0,0,0,0,0l1.2,2.7c0.6,1.4,1.7,2.6,3.1,3.3c1.7,0.8,3.5,0.8,5.2,0c1.6-0.7,2.9-2.1,3.4-3.9c0.4-1.5,0.2-3-0.4-4.4l-1.9-4.2
	l42.6-21.8c0,0,0.1,0,0.1,0C505.4,14.6,505.9,11.4,505.4,10.3L505.4,10.3z M449.9,19.7c-1.7-2-4.5-2.4-6.7-1.2
	c0.2-0.2,0.4-0.4,0.6-0.6c1.7-1.4,4.1-1.2,5.5,0.4c0.4,0.5,0.7,1.1,0.8,1.7C450.1,19.9,450,19.7,449.9,19.7L449.9,19.7z M457.8,46.2
	c-0.6,0.3-1.2,0.4-1.9,0.4c0.1-0.1,0.3-0.1,0.4-0.2c2.3-1.1,3.5-3.8,2.8-6.2c0.2,0.2,0.3,0.5,0.5,0.7
	C460.6,42.9,459.8,45.2,457.8,46.2L457.8,46.2z"/>
</svg>
