<svg width="408" height="112" viewBox="0 0 408 112" fill="none" xmlns="http://www.w3.org/2000/svg">
<path d="M0 110.525V57.6313H3.02486V82.1164H36.855V57.6313H39.8799V110.514H36.855V84.844H3.02486V110.514H0V110.525Z" fill="#838891"/>
<path d="M66.7621 73.2734C77.6222 73.2734 85.1844 81.6135 85.1844 92.2719C85.1844 102.93 77.6117 111.27 66.7621 111.27C55.9125 111.27 48.3398 102.93 48.3398 92.2719C48.3398 81.6135 55.9125 73.2734 66.7621 73.2734ZM51.0706 92.2719C51.0706 101.493 57.2044 108.983 66.7621 108.983C76.3198 108.983 82.4536 101.493 82.4536 92.2719C82.4536 83.0507 76.3198 75.5604 66.7621 75.5604C57.2044 75.5604 51.0706 83.0507 51.0706 92.2719Z" fill="#838891"/>
<path d="M95.5925 74.0075V81.8965C97.4725 76.4413 101.495 73.2627 107.524 73.2627C112.88 73.2627 117.166 75.7699 119.602 80.6376C120.043 81.5188 120.485 82.5888 120.674 83.6274C120.863 82.5993 121.304 81.5293 121.703 80.6796C124.024 75.8434 128.089 73.2627 133.666 73.2627C143.707 73.2627 147.582 81.7811 147.582 90.8554V110.515H144.852V91.8206C144.852 84.1834 142.415 75.6336 133.225 75.6336C124.035 75.6336 121.598 84.1939 121.598 91.8206V110.515H118.867V91.8206C118.867 84.1834 116.43 75.6336 107.24 75.6336C98.0502 75.6336 95.6135 84.1939 95.6135 91.8206V110.515H92.8827V74.0075H95.6135H95.5925Z" fill="#838891"/>
<path d="M173.698 73.2732C184.484 73.2732 192.193 81.6132 192.193 91.8625V93.2263H158.153C158.521 102.08 164.655 108.973 173.477 108.973C178.613 108.973 184.516 106.612 187.32 102.406H190.313C187.362 108.05 180.083 111.26 173.992 111.26C162.953 111.26 155.307 102.92 155.307 92.2612C155.307 81.6027 162.953 73.2627 173.698 73.2627V73.2732ZM158.153 90.9394H189.358C188.843 82.2007 182.709 75.5601 173.771 75.5601C164.833 75.5601 158.71 82.2322 158.153 90.9394Z" fill="#838891"/>
<path d="M208.631 57.6313L227.946 102.772L247.261 57.6313H255.611V110.514H249.624V66.0868L230.603 110.525H225.289L206.268 66.0868V110.525H200.281V57.6313H208.631Z" fill="#F7A53B"/>
<path d="M265.198 91.968C265.198 80.9424 273.474 72.6758 284.587 72.6758C295.699 72.6758 304.007 81.6767 304.007 93.1115V94.5172H271.069C272.14 101.305 277.529 106.393 284.439 106.393C288.462 106.393 293.525 104.662 295.846 101.231H302.232C298.986 108.721 292.264 111.26 284.503 111.26C273.464 111.26 265.188 102.994 265.188 91.968H265.198ZM271.027 89.6496H297.946C296.991 82.7887 291.561 77.5539 284.503 77.5539C277.444 77.5539 272.025 82.7887 271.027 89.6496Z" fill="#F7A53B"/>
<path d="M330.664 72.6863C336.725 72.6863 341.598 75.3089 344.329 81.2046V73.4206H350.011V110.526H344.329V102.742C341.598 108.638 336.725 111.26 330.664 111.26C319.626 111.26 311.391 102.553 311.391 91.968C311.391 81.383 319.626 72.6758 330.664 72.6758V72.6863ZM317.073 91.9785C317.073 99.7625 322.651 106.403 330.696 106.403C338.741 106.403 344.318 99.7625 344.318 91.9785C344.318 84.1945 338.741 77.5539 330.696 77.5539C322.651 77.5539 317.073 84.1945 317.073 91.9785Z" fill="#F7A53B"/>
<path d="M361.09 110.525V54.6104H366.772V110.525H361.09Z" fill="#F7A53B"/>
<path d="M381.552 101.965C382.959 105.763 387.717 106.392 391.004 106.392C395.027 106.392 401.192 105.438 401.192 100.087C401.192 94.7373 395.468 94.5904 391.225 94.0029C384.65 93.0798 376.342 91.3069 376.342 83.2291C376.342 75.1513 384.692 72.686 391.298 72.686C397.096 72.686 404.921 75.3821 405.992 81.9807H400.089C398.913 78.2146 394.628 77.5537 391.34 77.5537C387.612 77.5537 382.182 78.4034 382.182 82.9773C382.182 87.5512 387.79 88.4324 391.225 88.873C398.356 89.7962 407.032 91.5272 407.032 100.266C407.032 109.005 398.241 111.26 391.267 111.26C382.255 111.26 376.752 107.872 375.649 101.965H381.552Z" fill="#F7A53B"/>
<path d="M328.168 45.3471C327.884 44.5708 327.559 43.784 327.212 43.0182L322.717 33.1361C321.089 31.1324 320.102 28.8139 319.303 26.3591C318.768 24.9849 318.253 23.6001 317.749 22.2154L312.455 10.5603C311.951 9.4378 311.027 8.58806 309.861 8.14745C308.695 7.71734 307.435 7.7593 306.301 8.26285C305.166 8.7664 304.295 9.68957 303.853 10.8435C303.412 11.9975 303.444 13.2459 303.958 14.3684L309.388 26.3172C310.113 27.618 310.827 28.9293 311.521 30.2512C312.865 32.4857 313.978 34.7831 314.409 37.3533L319.419 48.3684C319.923 49.4909 320.847 50.3407 322.013 50.7813C323.179 51.2114 324.439 51.1694 325.574 50.6659C326.708 50.1623 327.58 49.2392 328.021 48.0852C328.315 47.3194 328.399 46.4801 328.262 45.6723C328.241 45.5569 328.21 45.452 328.178 45.3471H328.168ZM307.75 9.15455C305.891 9.83644 304.841 11.7247 305.145 13.5816C305.03 13.4032 304.925 13.2039 304.851 12.9941C304.284 11.4625 305.072 9.77349 306.616 9.207C307.099 9.02866 307.592 8.9867 308.065 9.04964C307.96 9.08111 307.845 9.11259 307.75 9.15455ZM324.838 49.5958C323.389 50.3721 321.582 49.8371 320.805 48.3999C320.564 47.9593 320.448 47.4767 320.448 46.9942C320.49 47.0886 320.532 47.1935 320.585 47.2984C321.519 49.0189 323.547 49.7847 325.364 49.2077C325.206 49.3441 325.027 49.4804 324.817 49.5749L324.838 49.5958Z" fill="#F7A53A"/>
<path d="M317.131 45.6719L313.56 37.8144C311.858 35.7793 310.86 33.4084 310.041 30.9011C309.453 29.38 308.886 27.8484 308.329 26.3272L304.475 17.8508C303.97 16.7283 303.046 15.8786 301.88 15.438C300.715 15.0079 299.454 15.0498 298.32 15.5534C297.186 16.0569 296.314 16.9801 295.873 18.1341C295.432 19.288 295.463 20.5364 295.978 21.6589L299.832 30.1248C300.673 31.6355 301.502 33.1461 302.311 34.6673C303.697 36.9752 304.842 39.3356 305.241 42.0107L308.634 49.48C309.138 50.6025 310.062 51.4522 311.228 51.8928C312.394 52.3229 313.654 52.281 314.789 51.7774C315.923 51.2739 316.795 50.3507 317.236 49.1967C317.677 48.0428 317.635 46.7944 317.131 45.6719ZM299.559 16.5815C297.784 17.4627 296.933 19.4454 297.448 21.2603C297.312 21.0924 297.196 20.9141 297.091 20.7148C296.366 19.2566 296.965 17.4836 298.446 16.7598C298.908 16.529 299.391 16.4346 299.874 16.4556C299.769 16.4975 299.664 16.5395 299.57 16.5919L299.559 16.5815ZM314.158 50.7389C312.709 51.5152 310.902 50.9802 310.125 49.5429C309.884 49.1023 309.768 48.6198 309.768 48.1372C309.81 48.2316 309.852 48.3365 309.905 48.4414C310.839 50.1619 312.867 50.9277 314.684 50.3507C314.515 50.4871 314.337 50.6235 314.137 50.7179L314.158 50.7389Z" fill="#F7A53A"/>
<path d="M304.932 43.7107L304.176 42.0427C302.59 40.06 301.613 37.7625 300.825 35.3497C300.332 34.0803 299.859 32.811 299.386 31.5311L297.895 28.258C297.391 27.1355 296.467 26.2858 295.301 25.8452C294.135 25.4151 292.875 25.4571 291.74 25.9606C290.606 26.4642 289.734 27.3873 289.293 28.5413C288.852 29.6953 288.883 30.9436 289.398 32.0661L296.425 47.5188C296.929 48.6413 297.853 49.491 299.019 49.9316C300.185 50.3617 301.445 50.3198 302.579 49.8162C303.714 49.3127 304.585 48.3895 305.027 47.2355C305.468 46.0816 305.436 44.8332 304.922 43.7107H304.932ZM292.728 26.9152C290.953 27.7965 290.102 29.7792 290.616 31.5941C290.48 31.4262 290.364 31.2479 290.259 31.0485C289.535 29.5904 290.133 27.8174 291.614 27.0936C292.076 26.8628 292.56 26.7684 293.043 26.7894C292.938 26.8313 292.833 26.8733 292.738 26.9257L292.728 26.9152ZM301.708 48.7567C300.258 49.533 298.452 48.998 297.674 47.5608C297.433 47.1201 297.317 46.6376 297.317 46.155C297.359 46.2494 297.401 46.3543 297.464 46.4592C298.399 48.1797 300.426 48.9455 302.243 48.3685C302.086 48.5049 301.897 48.6308 301.697 48.7357L301.708 48.7567Z" fill="#F7A53A"/>
<path d="M335.907 37.2481L331.968 28.5828C330.33 26.5791 329.343 24.2502 328.544 21.7954C328.009 20.4107 327.484 19.0049 326.98 17.6097L323.251 9.42699C322.747 8.30449 321.823 7.45475 320.657 7.01415C319.491 6.58403 318.231 6.626 317.086 7.12955C315.951 7.6331 315.08 8.55627 314.639 9.71024C314.197 10.8642 314.229 12.1126 314.744 13.2351L318.43 21.3548C319.228 22.7815 320.016 24.2292 320.783 25.6769C322.159 27.9639 323.304 30.3033 323.703 32.9469L327.389 41.0562C327.893 42.1787 328.818 43.0284 329.983 43.469C331.149 43.8991 332.41 43.8572 333.544 43.3536C334.678 42.8501 335.55 41.9269 335.991 40.7729C336.432 39.619 336.401 38.3706 335.886 37.2481H335.907ZM322.127 10.9481C322.085 10.8432 322.043 10.7488 321.991 10.6439C321.119 8.89197 319.123 8.05272 317.285 8.55627C317.453 8.41989 317.642 8.30449 317.842 8.19959C319.323 7.47574 321.098 8.0737 321.823 9.54239C322.043 9.99348 322.148 10.476 322.127 10.9586V10.9481ZM334.09 41.7381C333.638 41.9793 333.155 42.0947 332.683 42.0947C332.788 42.0528 332.882 42.0003 332.987 41.9479C334.731 41.0142 335.508 39 334.941 37.2061C335.077 37.3635 335.203 37.5418 335.319 37.7411C336.096 39.1679 335.55 40.9617 334.101 41.7381H334.09Z" fill="#F7A53A"/>
<path d="M376.269 4.52803L374.631 0.982208C374.116 -0.0878332 371.868 -0.822176 370.839 1.74802C370.828 1.769 370.807 1.80048 370.776 1.81097L337.051 14.9347L335.528 11.5882C335.045 10.5391 334.257 9.62647 333.196 9.13341C331.936 8.55642 330.528 8.54593 329.279 9.10194C328.029 9.65794 327.104 10.7175 326.716 12.0393C326.38 13.1513 326.548 14.3472 327.031 15.3963L327.682 16.8335C328.48 18.2602 329.258 19.687 330.014 21.1242C331.379 23.4006 332.524 25.74 332.934 28.3732C332.934 28.3732 332.934 28.3942 332.934 28.4046L333.868 30.4608C334.352 31.5099 335.139 32.433 336.2 32.9261C337.46 33.5136 338.868 33.5241 340.118 32.9576C341.368 32.3911 342.302 31.3315 342.691 30.0097C343.016 28.8977 342.848 27.7018 342.365 26.6527L340.926 23.495L373.213 6.94087C373.213 6.94087 373.265 6.93038 373.297 6.94087C376.258 7.84306 376.647 5.37777 376.248 4.52803H376.269ZM334.183 11.6407C332.902 10.151 330.759 9.82579 329.1 10.7595C329.226 10.5916 329.384 10.4238 329.552 10.2769C330.812 9.21733 332.682 9.3642 333.753 10.6021C334.078 10.9902 334.299 11.4308 334.394 11.8924C334.331 11.798 334.257 11.7141 334.183 11.6302V11.6407ZM340.191 31.7407C339.729 31.9715 339.246 32.0659 338.763 32.0449C338.868 32.0029 338.973 31.961 339.067 31.919C340.842 31.0483 341.693 29.076 341.199 27.2507C341.336 27.4185 341.452 27.5969 341.546 27.7962C342.271 29.2544 341.662 31.0273 340.181 31.7407H340.191Z" fill="#F7A53A"/>
</svg>
