<?xml version="1.0" encoding="utf-8"?>
<!-- Generator: Adobe Illustrator 27.1.0, SVG Export Plug-In . SVG Version: 6.00 Build 0)  -->
<svg version="1.1" id="Capa_1" xmlns="http://www.w3.org/2000/svg" xmlns:xlink="http://www.w3.org/1999/xlink" x="0px" y="0px"
	 viewBox="0 0 218.8 65.4" style="enable-background:new 0 0 218.8 65.4;" xml:space="preserve">
<style type="text/css">
	.st0{clip-path:url(#SVGID_00000026159582830341276540000013034542112234954922_);}
	.st1{fill:#6A7682;}
	.st2{fill:#59C9F4;}
	.st3{clip-path:url(#SVGID_00000163066138260540053870000001950191865556335792_);}
	.st4{clip-path:url(#SVGID_00000053510469859460620910000015997211648935430564_);}
	.st5{clip-path:url(#SVGID_00000121981431339282545240000001667340744944316603_);}
	.st6{clip-path:url(#SVGID_00000147898446735502225070000007172266048842478213_);}
	.st7{clip-path:url(#SVGID_00000140706258722137587970000018155039323541901461_);}
	.st8{clip-path:url(#SVGID_00000155120503582166242750000002303702042071682448_);}
	.st9{clip-path:url(#SVGID_00000103238716567820254680000015245801423849992329_);}
	.st10{clip-path:url(#SVGID_00000122704925124130417320000006818712599927792271_);}
	.st11{clip-path:url(#SVGID_00000161618697046782313030000012988340755688845989_);}
	.st12{clip-path:url(#SVGID_00000070831681765676560450000017396710520830120585_);}
	.st13{clip-path:url(#SVGID_00000002379784745191509590000006760813495436503741_);}
	.st14{clip-path:url(#SVGID_00000051376028685742089000000010554693310468469693_);}
</style>
<g id="surface1_00000112627198854702143250000009785353780184449700_">
	<g>
		<defs>
			<rect id="SVGID_00000001624296063970666290000006742211611627895220_" x="0.5" y="0.4" width="217.6" height="65"/>
		</defs>
		<clipPath id="SVGID_00000002383011797288713260000015075518900102566563_">
			<use xlink:href="#SVGID_00000001624296063970666290000006742211611627895220_"  style="overflow:visible;"/>
		</clipPath>
		<g style="clip-path:url(#SVGID_00000002383011797288713260000015075518900102566563_);">
			<path class="st1" d="M8.7,2C5.1,2,2.1,5,2.1,8.6v47.7c0,3.6,2.9,6.6,6.6,6.6H210c3.6,0,6.6-2.9,6.6-6.6V8.6
				c0-3.6-2.9-6.6-6.6-6.6H8.7z M210,64.4H8.7c-4.5,0-8.2-3.7-8.2-8.2V8.6c0-4.5,3.7-8.2,8.2-8.2H210c4.5,0,8.2,3.7,8.2,8.2v47.7
				C218.1,60.8,214.5,64.4,210,64.4"/>
		</g>
	</g>
	<path class="st1" d="M76,17.2l-0.8-2.6c-0.2-0.6-0.4-1.4-0.5-2h0c-0.2,0.6-0.3,1.3-0.5,2l-0.8,2.6H76z M73,18.6l-0.9,3h-2l3.4-10.5
		h2.4l3.4,10.5h-2.1l-1-3"/>
	<path class="st1" d="M82.2,14l1.2,3.9c0.2,0.7,0.4,1.3,0.5,1.9h0c0.1-0.6,0.3-1.2,0.5-1.9l1.2-3.9h2l-2.9,7.6H83L80.1,14"/>
	<path class="st1" d="M93.5,17.9c-1.4,0-2.7,0.3-2.7,1.4c0,0.8,0.5,1.1,1.1,1.1c0.8,0,1.3-0.5,1.5-1c0.1-0.1,0.1-0.3,0.1-0.4V17.9z
		 M95.4,19.8c0,0.7,0,1.4,0.1,1.8h-1.7l-0.1-0.8h-0.1c-0.4,0.6-1.2,1-2.2,1c-1.5,0-2.4-1.1-2.4-2.3c0-1.9,1.7-2.9,4.5-2.9v-0.1
		c0-0.5-0.2-1.3-1.5-1.3c-0.8,0-1.5,0.2-2,0.6l-0.4-1.2c0.6-0.3,1.5-0.7,2.8-0.7c2.4,0,3.1,1.5,3.1,3.2"/>
	<path class="st1" d="M98.1,14h1.9v7.6h-1.9V14z M99.1,12.9c-0.6,0-1.1-0.5-1.1-1c0-0.6,0.4-1,1.1-1c0.7,0,1.1,0.5,1.1,1
		C100.2,12.4,99.7,12.9,99.1,12.9"/>
	<path class="st1" d="M102.8,21.6h1.9V10.5h-1.9V21.6z"/>
	<path class="st1" d="M111.5,17.9c-1.4,0-2.7,0.3-2.7,1.4c0,0.8,0.5,1.1,1.1,1.1c0.8,0,1.3-0.5,1.5-1c0-0.1,0-0.3,0-0.4V17.9z
		 M113.4,19.8c0,0.7,0,1.4,0.1,1.8h-1.7l-0.1-0.8h0c-0.5,0.6-1.2,1-2.2,1c-1.5,0-2.4-1.1-2.4-2.3c0-1.9,1.7-2.9,4.5-2.9v-0.1
		c0-0.5-0.2-1.3-1.5-1.3c-0.8,0-1.5,0.2-2,0.6l-0.4-1.2c0.6-0.3,1.5-0.7,2.7-0.7c2.4,0,3.1,1.5,3.1,3.2"/>
	<path class="st1" d="M118,18.5c0,0.2,0,0.3,0,0.5c0.2,0.8,0.9,1.3,1.7,1.3c1.2,0,1.9-1,1.9-2.5c0-1.3-0.6-2.4-1.9-2.4
		c-0.8,0-1.5,0.6-1.7,1.4c0,0.1-0.1,0.3-0.1,0.5V18.5z M116.1,10.5h1.9V15h0c0.5-0.7,1.3-1.2,2.4-1.2c1.9,0,3.2,1.5,3.2,3.9
		c0,2.7-1.7,4.1-3.4,4.1c-1,0-1.9-0.4-2.4-1.3h0l-0.1,1.1H116c0-0.5,0.1-1.4,0.1-2.1"/>
	<path class="st1" d="M125.9,21.6h1.9V10.5h-1.9V21.6z"/>
	<path class="st1" d="M135.3,17c0-0.7-0.3-1.9-1.6-1.9c-1.2,0-1.7,1.1-1.8,1.9H135.3z M132,18.3c0,1.4,1.1,2,2.3,2
		c0.9,0,1.5-0.1,2.1-0.3l0.3,1.3c-0.7,0.3-1.6,0.5-2.7,0.5c-2.5,0-3.9-1.5-3.9-3.8c0-2.1,1.3-4.1,3.7-4.1c2.5,0,3.3,2,3.3,3.7
		c0,0.4,0,0.6-0.1,0.8"/>
	<path class="st1" d="M146.7,20.4c1.1,0,1.9-1.1,1.9-2.6c0-1.2-0.5-2.6-1.8-2.6c-1.4,0-1.9,1.3-1.9,2.6
		C144.8,19.3,145.5,20.4,146.7,20.4L146.7,20.4z M146.6,21.8c-2.1,0-3.8-1.5-3.8-3.9c0-2.5,1.6-4,3.9-4c2.3,0,3.8,1.6,3.8,3.9
		C150.5,20.5,148.5,21.8,146.6,21.8"/>
	<path class="st1" d="M152.8,16.3c0-0.9,0-1.6-0.1-2.3h1.7l0.1,1.1h0c0.3-0.6,1.2-1.3,2.4-1.3c1.3,0,2.7,0.9,2.7,3.3v4.5h-1.9v-4.3
		c0-1.1-0.4-1.9-1.4-1.9c-0.8,0-1.3,0.5-1.5,1.1c-0.1,0.2-0.1,0.4-0.1,0.6v4.5h-1.9"/>
	<path class="st1" d="M168.5,12V14h1.8v1.4h-1.8v3.3c0,0.9,0.2,1.4,1,1.4c0.3,0,0.5,0,0.8-0.1l0,1.4c-0.3,0.1-0.8,0.2-1.4,0.2
		c-0.7,0-1.3-0.2-1.7-0.6c-0.4-0.4-0.6-1.1-0.6-2.1v-3.6h-1.1V14h1.1v-1.4"/>
	<path class="st1" d="M172.5,10.5h1.9V15h0c0.2-0.4,0.6-0.7,1-0.9c0.4-0.2,0.8-0.3,1.3-0.3c1.3,0,2.7,0.9,2.7,3.3v4.5h-1.9v-4.3
		c0-1.1-0.4-1.9-1.5-1.9c-0.7,0-1.3,0.5-1.5,1.1c-0.1,0.2-0.1,0.4-0.1,0.6v4.6h-1.9"/>
	<path class="st1" d="M186.8,17c0-0.7-0.3-1.9-1.6-1.9c-1.2,0-1.7,1.1-1.8,1.9H186.8z M183.4,18.3c0,1.4,1.1,2,2.3,2
		c0.9,0,1.5-0.1,2.1-0.3l0.3,1.3c-0.7,0.3-1.6,0.5-2.7,0.5c-2.5,0-3.9-1.5-3.9-3.8c0-2.1,1.3-4.1,3.7-4.1c2.5,0,3.3,2,3.3,3.7
		c0,0.4,0,0.6-0.1,0.8"/>
	<path class="st1" d="M49.1,31.8c-0.1-5.2,4.3-7.7,4.5-7.9c-2.4-3.6-6.2-4-7.6-4.1c-3.2-0.3-6.3,1.9-7.9,1.9c-1.7,0-4.1-1.9-6.8-1.8
		c-3.5,0.1-6.7,2.1-8.5,5.2c-3.7,6.3-0.9,15.7,2.6,20.8c1.8,2.5,3.8,5.3,6.5,5.2c2.6-0.1,3.6-1.7,6.8-1.7c3.1,0,4.1,1.7,6.8,1.6
		c2.8,0,4.6-2.5,6.3-5.1c2-2.9,2.8-5.7,2.9-5.9C54.6,40.1,49.2,38,49.1,31.8"/>
	<path class="st1" d="M43.9,16.5c1.4-1.8,2.4-4.2,2.1-6.6C44,10,41.4,11.3,40,13c-1.3,1.5-2.5,4-2.2,6.4
		C40.1,19.5,42.5,18.2,43.9,16.5"/>
	<path class="st1" d="M80.8,41.7L79,36.1c-0.2-0.6-0.6-1.9-1.1-4h-0.1c-0.2,0.9-0.6,2.3-1,4L75,41.7H80.8z M87,50.7h-3.7l-2-6.3h-7
		l-1.9,6.3h-3.6l6.9-21.4h4.3"/>
	<path class="st1" d="M101.3,42.9c0-1.5-0.3-2.7-1-3.7c-0.7-1-1.7-1.5-3-1.5c-0.8,0-1.6,0.3-2.3,0.8c-0.7,0.6-1.1,1.3-1.4,2.2
		c-0.1,0.4-0.2,0.8-0.2,1v2.6c0,1.1,0.3,2.1,1,2.8c0.7,0.8,1.6,1.2,2.7,1.2c1.3,0,2.3-0.5,3-1.5C100.9,45.8,101.3,44.5,101.3,42.9
		 M104.8,42.8c0,2.6-0.7,4.7-2.1,6.2c-1.3,1.4-2.9,2-4.7,2c-2,0-3.5-0.7-4.4-2.2h-0.1V57H90V40.3c0-1.7,0-3.3-0.1-5.1h3l0.2,2.5h0.1
		c1.1-1.8,2.9-2.8,5.2-2.8c1.8,0,3.3,0.7,4.6,2.2C104.2,38.5,104.8,40.4,104.8,42.8"/>
	<path class="st1" d="M119.1,42.9c0-1.5-0.3-2.7-1-3.7c-0.7-1-1.7-1.5-3-1.5c-0.8,0-1.6,0.3-2.3,0.8c-0.7,0.6-1.1,1.3-1.3,2.2
		c-0.1,0.4-0.2,0.8-0.2,1v2.6c0,1.1,0.3,2.1,1,2.8c0.7,0.8,1.6,1.2,2.7,1.2c1.3,0,2.3-0.5,3-1.5C118.7,45.8,119.1,44.5,119.1,42.9
		 M122.6,42.8c0,2.6-0.7,4.7-2.1,6.2c-1.3,1.4-2.9,2-4.7,2c-2,0-3.5-0.7-4.4-2.2h-0.1V57h-3.4V40.3c0-1.7,0-3.3-0.1-5.1h3l0.2,2.5
		h0.1c1.1-1.8,2.9-2.8,5.2-2.8c1.8,0,3.3,0.7,4.6,2.2C122,38.5,122.6,40.4,122.6,42.8"/>
	<path class="st1" d="M142.4,44.7c0,1.8-0.6,3.3-1.9,4.5c-1.4,1.2-3.3,1.9-5.8,1.9c-2.3,0-4.2-0.4-5.6-1.3l0.8-2.9
		c1.5,0.9,3.2,1.4,5,1.4c1.3,0,2.3-0.3,3-0.9c0.7-0.6,1.1-1.4,1.1-2.3c0-0.9-0.3-1.6-0.9-2.2s-1.6-1.1-3-1.7
		c-3.8-1.4-5.6-3.5-5.6-6.1c0-1.8,0.7-3.2,2-4.3c1.3-1.1,3.1-1.7,5.2-1.7c2,0,3.6,0.3,4.9,1l-0.9,2.8c-1.2-0.7-2.6-1-4.1-1
		c-1.2,0-2.2,0.3-2.8,0.9c-0.6,0.5-0.9,1.2-0.9,1.9c0,0.8,0.3,1.5,1,2.1c0.6,0.5,1.6,1.1,3.1,1.7c1.8,0.7,3.2,1.6,4.1,2.6
		C142,41.9,142.4,43.2,142.4,44.7"/>
	<path class="st1" d="M153.8,37.8H150v7.5c0,1.9,0.7,2.9,2,2.9c0.6,0,1.1-0.1,1.5-0.2l0.1,2.6c-0.7,0.3-1.6,0.4-2.7,0.4
		c-1.4,0-2.4-0.4-3.2-1.2c-0.8-0.8-1.1-2.2-1.1-4.2v-7.8h-2.3v-2.6h2.3v-2.8l3.4-1v3.8h3.8"/>
	<path class="st1" d="M167.3,42.9c0-1.4-0.3-2.6-0.9-3.7c-0.7-1.2-1.7-1.9-3.1-1.9c-1.4,0-2.4,0.6-3.1,1.9c-0.6,1-0.9,2.3-0.9,3.7
		c0,1.4,0.3,2.6,0.9,3.7c0.7,1.2,1.8,1.9,3.1,1.9c1.3,0,2.3-0.6,3.1-1.9C167,45.6,167.3,44.4,167.3,42.9 M170.9,42.8
		c0,2.4-0.7,4.3-2,5.9c-1.4,1.6-3.3,2.4-5.7,2.4c-2.3,0-4.1-0.8-5.4-2.3c-1.3-1.5-2-3.4-2-5.7c0-2.4,0.7-4.4,2.1-5.9
		c1.4-1.5,3.3-2.3,5.6-2.3c2.3,0,4.1,0.8,5.5,2.3C170.2,38.6,170.9,40.5,170.9,42.8"/>
	<path class="st1" d="M182,38.2c-0.3-0.1-0.7-0.1-1.1-0.1c-1.2,0-2.1,0.5-2.8,1.4c-0.6,0.8-0.9,1.8-0.9,3.1v8.1h-3.4l0-10.6
		c0-1.8,0-3.4-0.1-4.9h3l0.1,3h0.1c0.4-1,0.9-1.8,1.7-2.4c0.8-0.6,1.6-0.8,2.5-0.8c0.3,0,0.6,0,0.9,0.1"/>
	<path class="st1" d="M194.1,41.3c0-1-0.2-1.9-0.7-2.6c-0.6-1-1.5-1.4-2.7-1.4c-1.1,0-2,0.5-2.7,1.4c-0.6,0.7-0.9,1.6-1,2.7H194.1z
		 M197.4,42.2c0,0.6,0,1.1-0.1,1.6H187c0,1.5,0.5,2.7,1.5,3.5c0.9,0.7,2,1.1,3.4,1.1c1.5,0,2.9-0.2,4.2-0.7l0.5,2.4
		c-1.5,0.6-3.2,1-5.2,1c-2.4,0-4.3-0.7-5.6-2.1c-1.4-1.4-2.1-3.3-2.1-5.7c0-2.3,0.6-4.3,1.9-5.8c1.3-1.7,3.1-2.5,5.4-2.5
		c2.2,0,3.9,0.8,5.1,2.5C197,38.7,197.4,40.3,197.4,42.2"/>
</g>
</svg>
