<?xml version="1.0" encoding="utf-8"?>
<!-- Generator: Adobe Illustrator 27.1.0, SVG Export Plug-In . SVG Version: 6.00 Build 0)  -->
<svg version="1.1" id="Capa_1" xmlns="http://www.w3.org/2000/svg" xmlns:xlink="http://www.w3.org/1999/xlink" x="0px" y="0px"
	 viewBox="0 0 218.8 65.4" style="enable-background:new 0 0 218.8 65.4;" xml:space="preserve">
<style type="text/css">
	.st0{clip-path:url(#SVGID_00000000943668564079325520000018400921122377928606_);}
	.st1{fill:#6A7682;}
	.st2{fill:#59C9F4;}
	.st3{clip-path:url(#SVGID_00000170247826744994631120000018081852471148079795_);}
	.st4{clip-path:url(#SVGID_00000069356524967380144520000002780551036983176864_);}
	.st5{clip-path:url(#SVGID_00000092436409196044764410000011274394002858577045_);}
	.st6{clip-path:url(#SVGID_00000089563009986966201240000012221583607613864884_);}
	.st7{clip-path:url(#SVGID_00000044137701954881400280000006335380327531689114_);}
	.st8{clip-path:url(#SVGID_00000063595386153994295100000018028254649866514877_);}
	.st9{clip-path:url(#SVGID_00000097464880062788605300000007675886831563474073_);}
	.st10{clip-path:url(#SVGID_00000052067417465405823650000001449477924549029506_);}
	.st11{clip-path:url(#SVGID_00000180355537647145481630000017333956810569227955_);}
	.st12{clip-path:url(#SVGID_00000054964285470284841550000014310880745750481841_);}
	.st13{clip-path:url(#SVGID_00000081648782959869399620000002787960669567664307_);}
	.st14{clip-path:url(#SVGID_00000122697804281492850470000007251157878918607779_);}
</style>
<g>
	<g>
		<defs>
			<rect id="SVGID_1_" x="0.1" y="-0.4" width="217.6" height="64.8"/>
		</defs>
		<clipPath id="SVGID_00000170987088124691816370000001602663398317151906_">
			<use xlink:href="#SVGID_1_"  style="overflow:visible;"/>
		</clipPath>
		<g style="clip-path:url(#SVGID_00000170987088124691816370000001602663398317151906_);">
			<path class="st1" d="M8.3,2C4.6,2,1.7,4.9,1.7,8.5v47.7c0,3.6,2.9,6.6,6.6,6.6h201.2c3.6,0,6.6-2.9,6.6-6.6V8.5
				c0-3.6-2.9-6.6-6.6-6.6H8.3z M209.5,64.4H8.3c-4.5,0-8.2-3.7-8.2-8.2V8.5c0-4.5,3.7-8.2,8.2-8.2h201.2c4.5,0,8.2,3.7,8.2,8.2
				v47.7C217.7,60.7,214,64.4,209.5,64.4"/>
		</g>
	</g>
	<path class="st1" d="M172.2,48.6h3V28.5h-3V48.6z M199.3,35.8l-3.4,8.7h-0.1l-3.6-8.7h-3.2l5.4,12.2l-3.1,6.8h3.1l8.2-19H199.3z
		 M182.3,46.4c-1,0-2.4-0.5-2.4-1.7c0-1.6,1.7-2.1,3.2-2.1c1.3,0,1.9,0.3,2.7,0.7C185.6,45,184,46.4,182.3,46.4 M182.6,35.3
		c-2.2,0-4.4,1-5.4,3.1l2.7,1.1c0.6-1.1,1.6-1.5,2.7-1.5c1.6,0,3.1,0.9,3.2,2.6v0.2c-0.5-0.3-1.7-0.8-3.1-0.8
		c-2.9,0-5.8,1.6-5.8,4.5c0,2.7,2.4,4.4,5,4.4c2,0,3.1-0.9,3.8-2h0.1v1.6h2.9v-7.7C188.7,37.3,186.1,35.3,182.6,35.3 M164.1,38.2
		h-4.3v-6.9h4.3c2.2,0,3.5,1.9,3.5,3.4C167.6,36.3,166.3,38.2,164.1,38.2 M164,28.5h-7.2v20.1h3V41h4.2c3.3,0,6.6-2.4,6.6-6.2
		S167.3,28.5,164,28.5 M124.8,46.4c-2.1,0-3.8-1.7-3.8-4.1c0-2.4,1.7-4.2,3.8-4.2c2,0,3.7,1.8,3.7,4.2
		C128.4,44.6,126.8,46.4,124.8,46.4 M128.2,36.9h-0.1c-0.7-0.8-2-1.5-3.6-1.5c-3.4,0-6.6,3-6.6,6.9c0,3.8,3.1,6.8,6.6,6.8
		c1.6,0,2.9-0.7,3.6-1.6h0.1v1c0,2.6-1.4,4-3.7,4c-1.8,0-3-1.3-3.4-2.4l-2.6,1.1c0.8,1.8,2.7,4,6.1,4c3.5,0,6.5-2.1,6.5-7.1V35.8
		h-2.9V36.9z M133.2,48.6h3V28.5h-3V48.6z M140.6,42c-0.1-2.6,2-4,3.6-4c1.2,0,2.2,0.6,2.5,1.4L140.6,42z M149.9,39.7
		c-0.6-1.5-2.3-4.4-5.9-4.4c-3.5,0-6.4,2.8-6.4,6.8c0,3.8,2.9,6.8,6.8,6.8c3.1,0,4.9-1.9,5.7-3l-2.3-1.6c-0.8,1.1-1.8,1.9-3.4,1.9
		s-2.6-0.7-3.3-2.1l9.1-3.8L149.9,39.7z M77,37.5v2.9H84c-0.2,1.6-0.8,2.8-1.6,3.7c-1,1-2.6,2.1-5.4,2.1c-4.3,0-7.6-3.4-7.6-7.7
		c0-4.3,3.3-7.7,7.6-7.7c2.3,0,4,0.9,5.2,2.1l2-2.1c-1.7-1.7-4-2.9-7.3-2.9c-5.9,0-10.8,4.8-10.8,10.6S71.2,49.1,77,49.1
		c3.2,0,5.5-1,7.4-3c1.9-1.9,2.5-4.6,2.5-6.8c0-0.7-0.1-1.3-0.2-1.8H77z M94.9,46.4c-2.1,0-3.9-1.7-3.9-4.1c0-2.5,1.8-4.1,3.9-4.1
		s3.9,1.7,3.9,4.1C98.7,44.7,96.9,46.4,94.9,46.4 M94.9,35.4c-3.8,0-6.9,2.9-6.9,6.8c0,3.9,3.1,6.8,6.9,6.8s6.9-2.9,6.9-6.8
		C101.7,38.3,98.6,35.4,94.9,35.4 M109.8,46.4c-2.1,0-3.9-1.7-3.9-4.1c0-2.5,1.8-4.1,3.9-4.1c2.1,0,3.9,1.7,3.9,4.1
		C113.7,44.7,111.9,46.4,109.8,46.4 M109.8,35.4c-3.8,0-6.9,2.9-6.9,6.8c0,3.9,3.1,6.8,6.9,6.8c3.8,0,6.9-2.9,6.9-6.8
		C116.7,38.3,113.6,35.4,109.8,35.4"/>
	<path class="st2" d="M17,12.5c-0.5,0.5-0.7,1.3-0.7,2.3v35.5c0,1,0.3,1.8,0.7,2.3l0.1,0.1l19.9-19.9v-0.5L17.2,12.4"/>
	<g>
		<defs>
			<rect id="SVGID_00000153689997285401035610000013322994583459151489_" x="37.1" y="25.7" width="16" height="13.8"/>
		</defs>
		<clipPath id="SVGID_00000020386855352574968310000005425367624151123644_">
			<use xlink:href="#SVGID_00000153689997285401035610000013322994583459151489_"  style="overflow:visible;"/>
		</clipPath>
		<g style="clip-path:url(#SVGID_00000020386855352574968310000005425367624151123644_);">
			<g>
				<defs>
					<path id="SVGID_00000031172297911016010290000003948076933078044581_" d="M37.1,32.3v0.5l6.6,6.6l0.1-0.1l7.9-4.5
						c2.2-1.3,2.2-3.4,0-4.6l-7.9-4.5l-0.2-0.1L37.1,32.3z"/>
				</defs>
				<clipPath id="SVGID_00000028288939886530394620000006132444259995607212_">
					<use xlink:href="#SVGID_00000031172297911016010290000003948076933078044581_"  style="overflow:visible;"/>
				</clipPath>
				<g style="clip-path:url(#SVGID_00000028288939886530394620000006132444259995607212_);">
					<g>
						<defs>
							<path id="SVGID_00000067954768747186911430000016935667579317693594_" d="M37.1,32.3v0.5l6.6,6.6l0.1-0.1l7.9-4.5
								c2.2-1.3,2.2-3.4,0-4.6l-7.9-4.5l-0.2-0.1L37.1,32.3z"/>
						</defs>
						<clipPath id="SVGID_00000121979994706934768990000014126322770302838676_">
							<use xlink:href="#SVGID_00000067954768747186911430000016935667579317693594_"  style="overflow:visible;"/>
						</clipPath>
						<g style="clip-path:url(#SVGID_00000121979994706934768990000014126322770302838676_);">
							<g transform="matrix(0.1,0,0,-0.1,36.9,115.94)">
								
									<image style="overflow:visible;enable-background:new    ;" width="165" height="138" id="image5" xlink:href="409DA348.jpg"  transform="matrix(0.1 0 0 -0.1 36.9646 39.5069)">
								</image>
							</g>
						</g>
					</g>
				</g>
			</g>
		</g>
	</g>
	<g>
		<defs>
			<rect id="SVGID_00000121274117166052372490000013817582124898272951_" x="17.1" y="32.6" width="27" height="21"/>
		</defs>
		<clipPath id="SVGID_00000018237506453475475670000016940374965616690083_">
			<use xlink:href="#SVGID_00000121274117166052372490000013817582124898272951_"  style="overflow:visible;"/>
		</clipPath>
		<g style="clip-path:url(#SVGID_00000018237506453475475670000016940374965616690083_);">
			<g>
				<defs>
					<path id="SVGID_00000081619539296879694460000013149400613303768975_" d="M17,52.6c0.7,0.8,2,0.9,3.3,0.1l23.5-13.3l-6.8-6.8
						L17,52.6z"/>
				</defs>
				<clipPath id="SVGID_00000173883446217153442870000004128291694015286463_">
					<use xlink:href="#SVGID_00000081619539296879694460000013149400613303768975_"  style="overflow:visible;"/>
				</clipPath>
				<g style="clip-path:url(#SVGID_00000173883446217153442870000004128291694015286463_);">
					<g>
						<defs>
							<path id="SVGID_00000148653071261031410610000005147620934384543642_" d="M17,52.6c0.7,0.8,2,0.9,3.3,0.1l23.5-13.3l-6.8-6.8
								L17,52.6z"/>
						</defs>
						<clipPath id="SVGID_00000003080275876086075420000007556557183234578065_">
							<use xlink:href="#SVGID_00000148653071261031410610000005147620934384543642_"  style="overflow:visible;"/>
						</clipPath>
						<g style="clip-path:url(#SVGID_00000003080275876086075420000007556557183234578065_);">
							<g>
								<defs>
									<path id="SVGID_00000005983053898438143920000006527961191612235943_" d="M26.7,22.8L6.6,43l23.8,23.8l20.1-20.1L26.7,22.8
										z M30.4,19.2l-3.7,3.7l23.8,23.8l3.7-3.7L30.4,19.2z"/>
								</defs>
								<clipPath id="SVGID_00000009571331167525260350000018373182539545898391_">
									<use xlink:href="#SVGID_00000005983053898438143920000006527961191612235943_"  style="overflow:visible;"/>
								</clipPath>
								<g style="clip-path:url(#SVGID_00000009571331167525260350000018373182539545898391_);">
									<g transform="matrix(0.1,0,0,-0.1,16.9,129.74)">
										
											<image style="overflow:visible;enable-background:new    ;" width="269" height="207" id="image8" xlink:href="409DA349.jpg"  transform="matrix(0.1 0 0 -0.1 16.9646 53.3069)">
										</image>
									</g>
								</g>
							</g>
						</g>
					</g>
				</g>
			</g>
		</g>
	</g>
	<g>
		<defs>
			<rect id="SVGID_00000083080326944723224220000008521090683337137341_" x="17.1" y="11.6" width="27" height="21"/>
		</defs>
		<clipPath id="SVGID_00000065063969020306915990000007216206986380110208_">
			<use xlink:href="#SVGID_00000083080326944723224220000008521090683337137341_"  style="overflow:visible;"/>
		</clipPath>
		<g style="clip-path:url(#SVGID_00000065063969020306915990000007216206986380110208_);">
			<g>
				<defs>
					<path id="SVGID_00000138531222669255364160000011051962731952136844_" d="M17,12.5l20,20l6.8-6.8L20.4,12.4
						c-0.6-0.4-1.3-0.5-1.8-0.5C18,11.9,17.4,12.1,17,12.5"/>
				</defs>
				<clipPath id="SVGID_00000058583027639776107200000008009349960874944665_">
					<use xlink:href="#SVGID_00000138531222669255364160000011051962731952136844_"  style="overflow:visible;"/>
				</clipPath>
				<g style="clip-path:url(#SVGID_00000058583027639776107200000008009349960874944665_);">
					<g>
						<defs>
							<path id="SVGID_00000040543156586072556920000016761542857301617044_" d="M17,12.5l20,20l6.8-6.8L20.4,12.4
								c-0.6-0.4-1.3-0.5-1.8-0.5C18,11.9,17.4,12.1,17,12.5"/>
						</defs>
						<clipPath id="SVGID_00000130631304596635707200000002075154642510380205_">
							<use xlink:href="#SVGID_00000040543156586072556920000016761542857301617044_"  style="overflow:visible;"/>
						</clipPath>
						<g style="clip-path:url(#SVGID_00000130631304596635707200000002075154642510380205_);">
							<g>
								<defs>
									<path id="SVGID_00000054228044230257966910000015996156836917477761_" d="M6.6,22.3l13.2,13.2l23.8-23.8L30.4-1.5L6.6,22.3
										z M19.8,35.5l10.6,10.6l23.8-23.8L43.6,11.7L19.8,35.5z"/>
								</defs>
								<clipPath id="SVGID_00000011023889265893463860000001082829557008115875_">
									<use xlink:href="#SVGID_00000054228044230257966910000015996156836917477761_"  style="overflow:visible;"/>
								</clipPath>
								<g style="clip-path:url(#SVGID_00000011023889265893463860000001082829557008115875_);">
									<g transform="matrix(0.1,0,0,-0.1,16.9,109.04)">
										
											<image style="overflow:visible;enable-background:new    ;" width="269" height="207" id="image11" xlink:href="409DA34F.jpg"  transform="matrix(0.1 0 0 -0.1 16.9646 32.6069)">
										</image>
									</g>
								</g>
							</g>
						</g>
					</g>
				</g>
			</g>
		</g>
	</g>
	<path class="st1" d="M74,13.7c-0.6-0.5-1.4-0.9-2.3-0.9c-2,0-3.5,1.6-3.5,3.6c0,2,1.5,3.6,3.5,3.6c1.7,0,2.9-1,3-2.6H72v-1.1h4.1
		c0,3.3-1.8,4.9-4.5,4.9c-2.7,0-4.8-2.2-4.8-4.8c0-2.7,2.1-4.9,4.8-4.9c1.2,0,2.4,0.5,3.2,1.2"/>
	<path class="st1" d="M83.5,11.7v1.2h-4.3v3H83v1.2h-3.8v2.9h4.5v1.2h-5.7v-9.5"/>
	<path class="st1" d="M91.8,11.7v1.2h-2.9v8.3h-1.3v-8.3h-2.9v-1.2"/>
	<path class="st1" d="M96.7,21.1h1.3v-9.5h-1.3V21.1z"/>
	<path class="st1" d="M106.7,11.7v1.2h-2.9v8.3h-1.3v-8.3h-2.9v-1.2"/>
	<path class="st1" d="M115.7,20c2,0,3.5-1.6,3.5-3.6c0-2-1.5-3.6-3.5-3.6c-2,0-3.5,1.6-3.5,3.6C112.2,18.4,113.7,20,115.7,20
		 M115.7,11.6c2.7,0,4.8,2.2,4.8,4.9c0,2.7-2.1,4.8-4.8,4.8c-2.7,0-4.8-2.2-4.8-4.8C110.9,13.7,113,11.6,115.7,11.6"/>
	<path class="st1" d="M128,21.1l-4.3-7.1v7.1h-1.3v-9.5h1.3l4.3,7.1v-7.1h1.3v9.5"/>
</g>
</svg>
